<?xml version="1.0" encoding="iso-8859-1"?>
<!-- Generator: Adobe Illustrator 19.0.0, SVG Export Plug-In . SVG Version: 6.00 Build 0)  -->
<svg version="1.1" id="Layer_1" xmlns="http://www.w3.org/2000/svg" xmlns:xlink="http://www.w3.org/1999/xlink" x="0px" y="0px"
	 viewBox="0 0 496.319 496.319" style="enable-background:new 0 0 496.319 496.319;" xml:space="preserve">
<g transform="translate(5 4)">
	<path style="fill:#50DD8E;" d="M475.427,402.026c8.533,25.6,14.507,53.76,0,68.267s-42.667,8.533-68.267,0
		c-17.067-5.973-187.733-85.333-281.6-162.133c-23.893-19.627-93.867-67.413-93.867-119.467c0-23.893,8.533-45.227,23.893-62.293
		l0.853-0.853c13.653-14.507,39.253-26.453,46.933-29.013c5.12-18.773,14.507-34.987,29.013-47.787l0,0
		c7.68-9.387,28.16-17.067,28.16-17.067c10.24-4.267,22.187-6.827,34.133-6.827c52.053,0,100.693,69.973,119.467,93.867
		C407.16,239.893,466.894,376.426,475.427,402.026"/>
	<path style="fill:#FFD0A1;" d="M54.734,127.253c-25.6-25.6,11.093-40.96,2.56-75.093c34.133,8.533,48.64-28.16,74.24-2.56
		c-14.507,12.8-23.893,29.013-29.013,47.787C94.84,99.946,69.24,111.893,54.734,127.253L54.734,127.253z"/>
</g>
<path style="fill:#51565F;" d="M454.827,487.093c-14.507,0-30.72-4.267-43.52-8.533c-16.213-5.12-186.88-84.48-283.307-162.987
	c-2.56-2.56-5.973-5.12-9.387-7.68c-29.867-23.04-85.333-67.413-85.333-115.2c0-23.04,7.68-44.373,22.187-61.44
	c-12.8-15.36-7.68-27.307-1.707-40.107c4.267-9.387,8.533-19.627,5.973-33.28C35.84,18.613,5.12,17.759,4.267,17.759
	C1.707,17.759,0,16.053,0,13.493s1.707-4.267,4.267-4.267c1.707,0,35.84,0.853,62.293,43.52c12.8,2.56,23.04-1.707,32.427-5.973
	c12.8-5.973,26.453-11.947,42.667,4.267c0.853,0.853,1.707,1.707,0.853,3.413c-0.853,1.707-0.853,2.56-1.707,3.413
	c-13.653,11.947-23.04,27.307-27.307,45.227c0,1.707-1.707,2.56-3.413,3.413c-7.68,1.707-14.507,4.267-21.333,8.533
	c-1.707,0.853-4.267,0-5.973-1.707c-0.853-1.707,0-4.267,1.707-5.973c6.827-3.413,13.653-6.827,20.48-8.533
	c5.12-17.067,13.653-32.427,26.453-44.373c-10.24-8.533-17.92-5.12-29.867,0c-8.533,4.267-19.627,8.533-33.28,6.827
	c1.707,13.653-3.413,24.747-6.827,33.28c-5.973,12.8-9.387,21.333,2.56,33.28c1.707,1.707,1.707,4.267,0,5.973
	c-14.507,16.213-22.187,36.693-22.187,58.88c0,43.52,53.76,86.187,82.773,108.373c3.413,2.56,6.827,5.973,10.24,7.68
	c93.013,76.8,264.533,156.16,279.893,161.28c32.427,11.093,53.76,11.093,64,0.853c13.653-13.653,5.973-42.667-0.853-64
	c-6.827-20.48-64.853-157.867-161.28-279.893c-1.707-1.707-3.413-4.267-5.12-6.827c-21.333-27.307-64.853-85.333-110.933-85.333
	c-11.093,0-22.187,1.707-32.427,5.973c-2.56,0.853-4.267,0-5.12-2.56c-0.853-2.56,0-4.267,2.56-5.12
	c11.093-4.267,23.04-6.827,35.84-6.827c49.493,0,95.573,59.733,117.76,88.747c1.707,2.56,4.267,5.12,5.12,6.827
	c97.28,123.733,156.16,262.827,162.987,283.307c7.68,23.04,16.213,55.467-0.853,72.533
	C476.16,484.533,465.92,487.093,454.827,487.093z M395.094,307.893c-1.707,0-2.56-0.853-3.413-2.56c0,0-15.36-27.307-34.133-50.347
	c-1.707-1.707-0.853-4.267,0.853-5.973c1.707-1.707,4.267-0.853,5.973,0.853c18.773,23.893,34.133,51.2,34.133,52.053
	c0.853,1.707,0.853,4.267-1.707,5.973C396.8,307.893,395.947,307.893,395.094,307.893z M292.694,162.826
	c-1.707,0-2.56-0.853-3.413-1.707c0,0-25.6-34.133-51.2-58.88c-1.707-1.707-1.707-4.267,0-5.973c1.707-1.707,4.267-1.707,5.973,0
	c25.6,25.6,51.2,59.733,51.2,60.587c1.707,1.707,0.853,4.267-0.853,5.973C294.4,162.826,293.547,162.826,292.694,162.826z
	 M215.893,77.493c-0.853,0-2.56,0-3.413-0.853c-6.827-6.827-13.653-7.68-14.507-7.68c-2.56,0-4.267-1.707-4.267-4.267
	c0-2.56,1.707-4.267,4.267-4.267c0,0,10.24,0,20.48,9.387c1.707,1.707,1.707,4.267,0,5.973
	C218.454,77.493,216.747,77.493,215.893,77.493z"/>
<g>
</g>
<g>
</g>
<g>
</g>
<g>
</g>
<g>
</g>
<g>
</g>
<g>
</g>
<g>
</g>
<g>
</g>
<g>
</g>
<g>
</g>
<g>
</g>
<g>
</g>
<g>
</g>
<g>
</g>
</svg>
